<svg id="Layer_1" enable-background="new 0 0 512.292 512.292" height="512" viewBox="0 0 512.292 512.292" width="512" xmlns="http://www.w3.org/2000/svg"><g><g><path d="m485.613 255.463c0 131.906-95.618 227.239-227.524 227.239-61.129 0-116.894-9.368-159.138-47.141-48.912-43.735-79.698-107.321-79.698-178.098 0-131.906 106.931-238.837 238.837-238.837 65.953 0 125.662 26.733 168.883 69.954s58.64 100.93 58.64 166.883z" fill="#f5415f"/></g><g fill="#cd2846"><circle cx="110.226" cy="336.359" r="17.106"/><path d="m287.599 126.861-22.804 1.478c-4.112-20.63-14.606-38.957-29.339-52.838 1.684-1.127 3.285-2.43 4.772-3.917 12.279-12.279 12.279-32.186 0-44.465-3.026-3.026-6.518-5.303-10.242-6.838-11.553 1.354-22.853 3.532-33.841 6.475-6.642 6.43-9.83 15.008-9.567 23.566-16.686-3.28-34.444-2.309-51.152 3.338-.084-.334-.179-.664-.272-.994-19.287 11.602-36.792 25.854-52.029 42.247-7.432 11.784-12.006 24.421-14.045 37.309-3.067-2.645-6.743-4.601-10.787-5.636-9.481 14.444-17.436 29.975-23.64 46.37 4.618 3.832 10.549 6.137 17.019 6.137 7.404 0 14.101-3.018 18.934-7.889 4.69 19.512 15.109 36.818 29.574 50.054l-7.83 14.361c-7.571.473-14.89 4.151-19.766 10.719-8.78 11.828-6.309 28.534 5.519 37.314s28.534 6.309 37.314-5.519c6.046-8.146 6.756-18.604 2.749-27.195l7.054-12.937c6.256 2.925 12.865 5.223 19.749 6.802-2.75 8.803-.861 18.79 5.839 26.057 9.985 10.83 26.859 11.514 37.689 1.529 8.249-7.606 10.605-19.208 6.849-29.092.539-.158 1.079-.316 1.614-.483 6.854-2.14 13.388-5.004 19.516-8.5l12.961 13.174c-2.374 8.566-.421 18.126 6.025 25.164 9.95 10.863 26.821 11.603 37.684 1.653s11.603-26.821 1.653-37.684c-5.912-6.454-14.267-9.335-22.354-8.523l-12.327-12.53c14.28-15.359 23.763-35.238 26.058-57.257l18.82-1.219c8.575 14.968 28.713 17.917 41.234 6.372 10.83-9.985 11.514-26.859 1.529-37.689-10.872-11.79-29.761-11.459-40.16 1.086z"/><path d="m496.926 257.463c0-62.398-24.265-123.076-69.744-168.668-3.256-3.103-8.508.613-6.578 4.741.088.187.175.374.262.561 5.274 11.358-2.739 24.352-15.244 25.006-.194.01-.388.022-.582.035-18.646 1.254-33.768 16.348-35.051 34.992-1.518 22.057 15.926 40.422 37.659 40.422 1.632 0 3.24-.104 4.817-.305 16.506-2.104 30.835 11.362 28.929 27.892-.078.674-.158 1.346-.241 2.019-3.376 27.25-28.669 45.935-55.866 42.148-.041-.006-.07-.009-.086-.01 2.261-15.612-6.571-31.36-22.247-37.028-16.238-5.871-34.645 1.548-42.243 17.053-4.461 9.102-4.515 19.075-1.112 27.667 2.027 5.118.653 11.003-3.618 14.475-9.316 7.574-17.361 16.921-23.575 27.859l-10.486-4.314c-1.889-8.958-8.342-16.779-17.879-19.895-12.521-4.091-26.412 1.805-32.182 13.646-6.809 13.975-.344 30.571 13.808 36.394 8.479 3.489 17.717 2.286 24.837-2.402l11.146 4.586c-1.619 7.374-2.369 14.799-2.297 22.148.061 6.186.702 12.318 1.893 18.318 2.967 14.957-5.413 29.894-19.639 35.382-1.236.477-2.502.955-3.796 1.431-19.037 7.01-39.415-6.566-40.098-26.841-.009-.27-.021-.54-.036-.811-1.059-19.414-17.072-35.021-36.505-35.618-21.391-.657-38.939 16.489-38.939 37.733 0 .148.001.296.003.444.17 14.723-14.573 24.832-28.209 19.274-.38-.155-.76-.311-1.139-.468-12.745-5.272-23.138 10.694-13.928 20.221 44.375 39.678 100.925 60.75 159.128 60.75 41.703 0 82.362-10.783 118.309-31.323 73.613-42.059 120.529-120.472 120.529-207.514z"/></g><g><g><g><circle cx="154.985" cy="381.079" fill="#ffc305" r="37.751"/></g></g><g><g><circle cx="143.937" cy="371.456" fill="#ffdc64" r="23.013"/></g></g></g><g><g><g><circle cx="382.647" cy="141.802" fill="#ffc305" r="37.751"/></g></g><g><g><circle cx="392.27" cy="130.753" fill="#ffdc64" r="23.013"/></g></g></g><g><g><circle cx="85.226" cy="321.359" fill="#ffdc64" r="17.106"/></g></g><g><g><path d="m218.716 240.612c-3.88 0-7.758-1.496-10.694-4.48l-46.625-47.393c-5.81-5.905-5.732-15.402.173-21.212s15.402-5.733 21.212.173l46.625 47.393c5.81 5.905 5.732 15.402-.173 21.212-2.921 2.874-6.721 4.307-10.518 4.307z" fill="#05acff"/></g><g><path d="m78.042 247.321c-2.427 0-4.887-.59-7.167-1.833-7.273-3.966-9.955-13.077-5.989-20.35l29.498-54.099c3.965-7.274 13.078-9.956 20.35-5.989 7.273 3.966 9.955 13.077 5.989 20.35l-29.498 54.099c-2.722 4.993-7.87 7.822-13.183 7.822z" fill="#05acff"/></g><g><path d="m198.974 146.015c-7.842 0-14.439-6.094-14.954-14.031-.536-8.267 5.732-15.403 13.999-15.938l66.613-4.316c8.26-.536 15.402 5.731 15.938 13.999.535 8.267-5.731 15.403-13.999 15.938l-66.613 4.316c-.329.021-.658.032-.984.032z" fill="#05acff"/></g><g><circle cx="142.284" cy="132.883" fill="#05cdff" r="99.436"/></g><g><path d="m108.948 135.261c0-44.581 29.338-82.308 69.76-94.931-11.28-4.443-23.567-6.883-36.424-6.883-54.917 0-99.436 44.519-99.436 99.436s44.519 99.436 99.436 99.436c10.336 0 20.304-1.578 29.676-4.505-36.898-14.534-63.012-50.494-63.012-92.553z" fill="#05acff"/></g><g><circle cx="77.286" cy="47.025" fill="#05cdff" r="34.175"/></g><g><path d="m70.336 152.421h-43.664c-8.284 0-15-6.716-15-15s6.716-15 15-15h43.664c8.284 0 15 6.716 15 15s-6.716 15-15 15z" fill="#05acff"/></g><g><circle cx="187.578" cy="136.849" fill="#6ee1ff" r="30.995"/></g><g><circle cx="64.473" cy="44.257" fill="#6ee1ff" r="20.753"/></g><g><circle cx="26.672" cy="137.421" fill="#05acff" r="26.672"/></g><g><circle cx="16.672" cy="135.261" fill="#05cdff" r="16.197"/></g><g><circle cx="69.001" cy="247.235" fill="#05acff" r="26.672"/></g><g><circle cx="61.306" cy="253.977" fill="#05cdff" r="16.197"/></g><g><circle cx="230.13" cy="239.636" fill="#05acff" r="26.672"/></g><g><circle cx="235.292" cy="248.469" fill="#05cdff" r="16.197"/></g><g><circle cx="283.15" cy="128.856" fill="#05acff" r="26.672"/></g><g><circle cx="277.959" cy="120.04" fill="#05cdff" r="16.197"/></g><g><circle cx="145.417" cy="237.78" fill="#05cdff" r="26.672"/></g><g><circle cx="140.226" cy="228.964" fill="#6ee1ff" r="16.197"/></g><g><circle cx="192.995" cy="34.351" fill="#05cdff" r="31.441"/></g><g><circle cx="186.46" cy="24.215" fill="#6ee1ff" r="19.093"/></g><g><circle cx="121.387" cy="92.955" fill="#05cdff" r="16.689"/></g><g><circle cx="96.515" cy="169.316" fill="#05cdff" r="27.514"/></g></g><g><g><g><path d="m389.213 480.394c-5.918 0-11.525-3.525-13.896-9.344l-25.085-61.569c-3.125-7.672.56-16.425 8.231-19.551 7.674-3.126 16.426.559 19.552 8.231l25.085 61.569c3.125 7.672-.56 16.425-8.231 19.551-1.854.755-3.771 1.113-5.656 1.113z" fill="#05acff"/></g></g><g><g><path d="m256.587 433.072c-4.367 0-8.696-1.897-11.661-5.554-5.217-6.435-4.23-15.881 2.205-21.099l47.864-38.806c6.436-5.217 15.881-4.229 21.098 2.205 5.218 6.435 4.23 15.881-2.205 21.099l-47.863 38.806c-2.779 2.253-6.12 3.349-9.438 3.349z" fill="#05acff"/></g></g><g><g><path d="m470.208 406.76c-1.592 0-3.209-.255-4.801-.792l-63.245-21.354c-7.849-2.65-12.063-11.162-9.413-19.01 2.651-7.85 11.161-12.063 19.011-9.414l63.245 21.354c7.849 2.65 12.063 11.162 9.413 19.01-2.113 6.258-7.952 10.206-14.21 10.206z" fill="#05acff"/></g></g><g><g><circle cx="353.811" cy="350.554" fill="#6e64c3" r="99.436"/></g></g><g><g><path d="m322.078 340.069c16.963-41.227 58.45-64.954 100.634-61.246-8.741-8.4-19.175-15.333-31.065-20.225-50.786-20.896-108.896 3.335-129.792 54.121s3.335 108.896 54.121 129.792c9.559 3.933 19.377 6.266 29.158 7.125-28.594-27.48-39.06-70.671-23.056-109.567z" fill="#5046af"/></g></g><g><g><circle cx="326.37" cy="246.422" fill="#6e64c3" r="34.175"/></g></g><g><g><path d="m271.19 334.106c-1.901 0-3.834-.364-5.701-1.132l-40.38-16.614c-7.661-3.152-11.316-11.918-8.164-19.579 3.153-7.661 11.917-11.316 19.579-8.164l40.379 16.614c7.661 3.152 11.316 11.918 8.165 19.579-2.384 5.793-7.979 9.296-13.878 9.296z" fill="#05acff"/></g></g><g><g><circle cx="394.188" cy="371.456" fill="#6ee1ff" r="30.995"/></g></g><g><g><circle cx="315.574" cy="238.988" fill="#827ddc" r="20.753"/></g></g><g><g><circle cx="230.816" cy="302.488" fill="#5046af" r="26.672"/></g></g><g><g><circle cx="222.39" cy="296.686" fill="#6e64c3" r="16.197"/></g></g><g><g><circle cx="242.529" cy="428.42" fill="#5046af" r="26.672"/></g></g><g><g><circle cx="232.847" cy="431.728" fill="#6e64c3" r="16.197"/></g></g><g><g><circle cx="394.43" cy="482.703" fill="#5046af" r="26.672"/></g></g><g><g><circle cx="395.842" cy="492.835" fill="#6e64c3" r="16.197"/></g></g><g><g><circle cx="485.613" cy="400.429" fill="#5046af" r="26.672"/></g></g><g><g><circle cx="484.167" cy="390.301" fill="#6e64c3" r="16.197"/></g></g><g><g><circle cx="316.795" cy="448.752" fill="#05cdff" r="26.672"/></g></g><g><g><circle cx="315.349" cy="438.624" fill="#6ee1ff" r="16.197"/></g></g><g><g><circle cx="438.199" cy="278.73" fill="#05cdff" r="31.441"/></g></g><g><g><circle cx="436.012" cy="266.87" fill="#6ee1ff" r="19.093"/></g></g><g><g><circle cx="349.678" cy="305.678" fill="#05cdff" r="16.689"/></g></g><g><g><circle cx="297.622" cy="366.831" fill="#05cdff" r="27.514"/></g></g></g></g></svg>